<mxfile host="app.diagrams.net" agent="Mozilla/5.0 (Macintosh; Intel Mac OS X 10_15_7) AppleWebKit/605.1.15 (KHTML, like Gecko) Version/18.2 Safari/605.1.15" version="26.0.6">
  <diagram name="Page-1" id="w4Br4X8fiHlMywU7zGjp">
    <mxGraphModel dx="1026" dy="692" grid="1" gridSize="10" guides="1" tooltips="1" connect="1" arrows="1" fold="1" page="1" pageScale="1" pageWidth="827" pageHeight="1169" math="0" shadow="0">
      <root>
        <mxCell id="0" />
        <mxCell id="1" parent="0" />
        <mxCell id="ZnQUYUJRkyerH0akCMQI-6" value="" style="rhombus;whiteSpace=wrap;html=1;strokeColor=#E6E6E6;" vertex="1" parent="1">
          <mxGeometry x="271" y="427.0000000000001" width="130" height="130" as="geometry" />
        </mxCell>
        <mxCell id="ZnQUYUJRkyerH0akCMQI-5" value="" style="rhombus;whiteSpace=wrap;html=1;strokeColor=#B3B3B3;" vertex="1" parent="1">
          <mxGeometry x="263" y="426.0000000000001" width="130" height="130" as="geometry" />
        </mxCell>
        <mxCell id="FBOawsyxL3B5Fp3eW2MB-1" value="Zeugnis 端ber Hochschulabschluss" style="rounded=0;whiteSpace=wrap;html=1;" parent="1" vertex="1">
          <mxGeometry x="294" y="70" width="176" height="60" as="geometry" />
        </mxCell>
        <mxCell id="FBOawsyxL3B5Fp3eW2MB-3" value="positive Pr端fung A" style="rounded=0;whiteSpace=wrap;html=1;" parent="1" vertex="1">
          <mxGeometry x="160" y="260" width="120" height="30" as="geometry" />
        </mxCell>
        <mxCell id="FBOawsyxL3B5Fp3eW2MB-4" value="positive Pr端fung B" style="rounded=0;whiteSpace=wrap;html=1;" parent="1" vertex="1">
          <mxGeometry x="160" y="300" width="120" height="30" as="geometry" />
        </mxCell>
        <mxCell id="FBOawsyxL3B5Fp3eW2MB-5" value="positive Pr端fung N" style="rounded=0;whiteSpace=wrap;html=1;" parent="1" vertex="1">
          <mxGeometry x="160" y="370" width="120" height="30" as="geometry" />
        </mxCell>
        <mxCell id="FBOawsyxL3B5Fp3eW2MB-6" value="" style="group;resizable=0;cloneable=1;deletable=1;recursiveResize=0;movable=1;treeMoving=0;editable=1;rotatable=1;locked=0;connectable=1;rotation=90;" parent="1" vertex="1" connectable="0">
          <mxGeometry x="304" y="235" width="32" height="80" as="geometry" />
        </mxCell>
        <mxCell id="FBOawsyxL3B5Fp3eW2MB-7" value="" style="endArrow=none;html=1;rounded=0;snapToPoint=0;ignoreEdge=0;movable=0;deletable=0;cloneable=0;anchorPointDirection=1;" parent="FBOawsyxL3B5Fp3eW2MB-6" edge="1">
          <mxGeometry width="50" height="50" relative="1" as="geometry">
            <mxPoint x="-24" y="40" as="sourcePoint" />
            <mxPoint x="1" y="40" as="targetPoint" />
          </mxGeometry>
        </mxCell>
        <mxCell id="FBOawsyxL3B5Fp3eW2MB-8" value="" style="group;resizable=0;expand=0;deletable=0;editable=1;movable=0;rotatable=0;locked=0;connectable=0;recursiveResize=0;container=0;allowArrows=0;cloneable=0;rotation=90;" parent="FBOawsyxL3B5Fp3eW2MB-6" vertex="1" connectable="0">
          <mxGeometry x="-2" y="25" width="32" height="30" as="geometry" />
        </mxCell>
        <mxCell id="FBOawsyxL3B5Fp3eW2MB-9" value="" style="ellipse;whiteSpace=wrap;html=1;strokeWidth=1;resizable=0;movable=0;connectable=0;allowArrows=0;rotatable=0;cloneable=0;deletable=0;part=0;container=0;rotation=90;" parent="FBOawsyxL3B5Fp3eW2MB-8" vertex="1">
          <mxGeometry x="7" y="3" width="24" height="24" as="geometry" />
        </mxCell>
        <mxCell id="FBOawsyxL3B5Fp3eW2MB-10" value="" style="endArrow=none;html=1;rounded=0;curved=1;strokeWidth=1;bendable=0;comic=0;movable=0;cloneable=0;deletable=0;anchorPointDirection=1;fixDash=0;ignoreEdge=0;orthogonalLoop=0;orthogonal=0;arcSize=20;editable=0;" parent="FBOawsyxL3B5Fp3eW2MB-8" edge="1">
          <mxGeometry width="50" height="50" relative="1" as="geometry">
            <mxPoint x="19" y="-1" as="sourcePoint" />
            <mxPoint x="19" y="31" as="targetPoint" />
            <Array as="points">
              <mxPoint x="9" />
              <mxPoint x="1" y="15" />
              <mxPoint x="9" y="31" />
            </Array>
          </mxGeometry>
        </mxCell>
        <mxCell id="FBOawsyxL3B5Fp3eW2MB-11" value="" style="endArrow=none;html=1;rounded=0;entryX=0.5;entryY=0;entryDx=0;entryDy=0;movable=0;cloneable=0;deletable=0;" parent="FBOawsyxL3B5Fp3eW2MB-6" target="FBOawsyxL3B5Fp3eW2MB-8" edge="1">
          <mxGeometry width="50" height="50" relative="1" as="geometry">
            <mxPoint x="56" y="40" as="sourcePoint" />
            <mxPoint x="19" y="80" as="targetPoint" />
          </mxGeometry>
        </mxCell>
        <mxCell id="FBOawsyxL3B5Fp3eW2MB-13" value="" style="group;resizable=0;cloneable=1;deletable=1;recursiveResize=0;movable=1;treeMoving=0;editable=1;rotatable=1;locked=0;connectable=1;rotation=90;" parent="1" vertex="1" connectable="0">
          <mxGeometry x="304" y="275" width="32" height="80" as="geometry" />
        </mxCell>
        <mxCell id="FBOawsyxL3B5Fp3eW2MB-14" value="" style="endArrow=none;html=1;rounded=0;snapToPoint=0;ignoreEdge=0;movable=0;deletable=0;cloneable=0;anchorPointDirection=1;" parent="FBOawsyxL3B5Fp3eW2MB-13" edge="1">
          <mxGeometry width="50" height="50" relative="1" as="geometry">
            <mxPoint x="-24" y="40" as="sourcePoint" />
            <mxPoint x="1" y="40" as="targetPoint" />
          </mxGeometry>
        </mxCell>
        <mxCell id="FBOawsyxL3B5Fp3eW2MB-15" value="" style="group;resizable=0;expand=0;deletable=0;editable=1;movable=0;rotatable=0;locked=0;connectable=0;recursiveResize=0;container=0;allowArrows=0;cloneable=0;rotation=90;" parent="FBOawsyxL3B5Fp3eW2MB-13" vertex="1" connectable="0">
          <mxGeometry x="-2" y="25" width="32" height="30" as="geometry" />
        </mxCell>
        <mxCell id="FBOawsyxL3B5Fp3eW2MB-16" value="" style="ellipse;whiteSpace=wrap;html=1;strokeWidth=1;resizable=0;movable=0;connectable=0;allowArrows=0;rotatable=0;cloneable=0;deletable=0;part=0;container=0;rotation=90;" parent="FBOawsyxL3B5Fp3eW2MB-15" vertex="1">
          <mxGeometry x="7" y="3" width="24" height="24" as="geometry" />
        </mxCell>
        <mxCell id="FBOawsyxL3B5Fp3eW2MB-17" value="" style="endArrow=none;html=1;rounded=0;curved=1;strokeWidth=1;bendable=0;comic=0;movable=0;cloneable=0;deletable=0;anchorPointDirection=1;fixDash=0;ignoreEdge=0;orthogonalLoop=0;orthogonal=0;arcSize=20;editable=0;" parent="FBOawsyxL3B5Fp3eW2MB-15" edge="1">
          <mxGeometry width="50" height="50" relative="1" as="geometry">
            <mxPoint x="19" y="-1" as="sourcePoint" />
            <mxPoint x="19" y="31" as="targetPoint" />
            <Array as="points">
              <mxPoint x="9" y="-1" />
              <mxPoint x="1" y="15" />
              <mxPoint x="9" y="31" />
            </Array>
          </mxGeometry>
        </mxCell>
        <mxCell id="FBOawsyxL3B5Fp3eW2MB-18" value="" style="endArrow=none;html=1;rounded=0;entryX=0.5;entryY=0;entryDx=0;entryDy=0;movable=0;cloneable=0;deletable=0;" parent="FBOawsyxL3B5Fp3eW2MB-13" target="FBOawsyxL3B5Fp3eW2MB-15" edge="1">
          <mxGeometry width="50" height="50" relative="1" as="geometry">
            <mxPoint x="56" y="40" as="sourcePoint" />
            <mxPoint x="19" y="80" as="targetPoint" />
          </mxGeometry>
        </mxCell>
        <mxCell id="FBOawsyxL3B5Fp3eW2MB-20" value="" style="group;resizable=0;cloneable=1;deletable=1;recursiveResize=0;movable=1;treeMoving=0;editable=1;rotatable=1;locked=0;connectable=1;rotation=90;" parent="1" vertex="1" connectable="0">
          <mxGeometry x="304" y="345" width="32" height="80" as="geometry" />
        </mxCell>
        <mxCell id="FBOawsyxL3B5Fp3eW2MB-21" value="" style="endArrow=none;html=1;rounded=0;snapToPoint=0;ignoreEdge=0;movable=0;deletable=0;cloneable=0;anchorPointDirection=1;" parent="FBOawsyxL3B5Fp3eW2MB-20" edge="1">
          <mxGeometry width="50" height="50" relative="1" as="geometry">
            <mxPoint x="-24" y="40" as="sourcePoint" />
            <mxPoint x="1" y="40" as="targetPoint" />
          </mxGeometry>
        </mxCell>
        <mxCell id="FBOawsyxL3B5Fp3eW2MB-22" value="" style="group;resizable=0;expand=0;deletable=0;editable=1;movable=0;rotatable=0;locked=0;connectable=0;recursiveResize=0;container=0;allowArrows=0;cloneable=0;rotation=90;" parent="FBOawsyxL3B5Fp3eW2MB-20" vertex="1" connectable="0">
          <mxGeometry x="-2" y="25" width="32" height="30" as="geometry" />
        </mxCell>
        <mxCell id="FBOawsyxL3B5Fp3eW2MB-23" value="" style="ellipse;whiteSpace=wrap;html=1;strokeWidth=1;resizable=0;movable=0;connectable=0;allowArrows=0;rotatable=0;cloneable=0;deletable=0;part=0;container=0;rotation=90;" parent="FBOawsyxL3B5Fp3eW2MB-22" vertex="1">
          <mxGeometry x="7" y="3" width="24" height="24" as="geometry" />
        </mxCell>
        <mxCell id="FBOawsyxL3B5Fp3eW2MB-24" value="" style="endArrow=none;html=1;rounded=0;curved=1;strokeWidth=1;bendable=0;comic=0;movable=0;cloneable=0;deletable=0;anchorPointDirection=1;fixDash=0;ignoreEdge=0;orthogonalLoop=0;orthogonal=0;arcSize=20;editable=0;" parent="FBOawsyxL3B5Fp3eW2MB-22" edge="1">
          <mxGeometry width="50" height="50" relative="1" as="geometry">
            <mxPoint x="19" y="-1" as="sourcePoint" />
            <mxPoint x="19" y="31" as="targetPoint" />
            <Array as="points">
              <mxPoint x="9" y="-1" />
              <mxPoint x="1" y="15" />
              <mxPoint x="9" y="31" />
            </Array>
          </mxGeometry>
        </mxCell>
        <mxCell id="FBOawsyxL3B5Fp3eW2MB-25" value="" style="endArrow=none;html=1;rounded=0;entryX=0.5;entryY=0;entryDx=0;entryDy=0;movable=0;cloneable=0;deletable=0;" parent="FBOawsyxL3B5Fp3eW2MB-20" target="FBOawsyxL3B5Fp3eW2MB-22" edge="1">
          <mxGeometry width="50" height="50" relative="1" as="geometry">
            <mxPoint x="56" y="40" as="sourcePoint" />
            <mxPoint x="19" y="80" as="targetPoint" />
          </mxGeometry>
        </mxCell>
        <mxCell id="FBOawsyxL3B5Fp3eW2MB-27" value="" style="endArrow=none;dashed=1;html=1;dashPattern=1 3;strokeWidth=2;rounded=0;" parent="1" edge="1">
          <mxGeometry width="50" height="50" relative="1" as="geometry">
            <mxPoint x="220" y="340" as="sourcePoint" />
            <mxPoint x="220" y="360" as="targetPoint" />
          </mxGeometry>
        </mxCell>
        <mxCell id="FBOawsyxL3B5Fp3eW2MB-28" value="dem&amp;nbsp;&lt;div&gt;Pr端fungsamt vorliegende&lt;div&gt;Noten&lt;/div&gt;&lt;/div&gt;" style="rhombus;whiteSpace=wrap;html=1;" parent="1" vertex="1">
          <mxGeometry x="255" y="425.0000000000001" width="130" height="130" as="geometry" />
        </mxCell>
        <mxCell id="FBOawsyxL3B5Fp3eW2MB-36" style="edgeStyle=orthogonalEdgeStyle;rounded=0;orthogonalLoop=1;jettySize=auto;html=1;entryX=0;entryY=0.5;entryDx=0;entryDy=0;endArrow=none;endFill=0;" parent="1" source="FBOawsyxL3B5Fp3eW2MB-30" target="FBOawsyxL3B5Fp3eW2MB-3" edge="1">
          <mxGeometry relative="1" as="geometry">
            <Array as="points">
              <mxPoint x="110" y="490" />
              <mxPoint x="110" y="275" />
            </Array>
          </mxGeometry>
        </mxCell>
        <mxCell id="FBOawsyxL3B5Fp3eW2MB-30" value="" style="group;resizable=0;cloneable=1;deletable=1;recursiveResize=0;movable=1;treeMoving=0;editable=1;rotatable=1;locked=0;connectable=1;rotation=-90;" parent="1" vertex="1" connectable="0">
          <mxGeometry x="200" y="450" width="32" height="80" as="geometry" />
        </mxCell>
        <mxCell id="FBOawsyxL3B5Fp3eW2MB-31" value="" style="endArrow=none;html=1;rounded=0;snapToPoint=0;ignoreEdge=0;movable=0;deletable=0;cloneable=0;anchorPointDirection=1;" parent="FBOawsyxL3B5Fp3eW2MB-30" edge="1">
          <mxGeometry width="50" height="50" relative="1" as="geometry">
            <mxPoint x="56" y="40" as="sourcePoint" />
            <mxPoint x="31" y="40" as="targetPoint" />
          </mxGeometry>
        </mxCell>
        <mxCell id="FBOawsyxL3B5Fp3eW2MB-32" value="" style="group;resizable=0;expand=0;deletable=0;editable=1;movable=0;rotatable=0;locked=0;connectable=0;recursiveResize=0;container=0;allowArrows=0;cloneable=0;rotation=-90;" parent="FBOawsyxL3B5Fp3eW2MB-30" vertex="1" connectable="0">
          <mxGeometry x="2" y="25" width="32" height="30" as="geometry" />
        </mxCell>
        <mxCell id="FBOawsyxL3B5Fp3eW2MB-33" value="" style="ellipse;whiteSpace=wrap;html=1;strokeWidth=1;resizable=0;movable=0;connectable=0;allowArrows=0;rotatable=0;cloneable=0;deletable=0;part=0;container=0;rotation=-90;" parent="FBOawsyxL3B5Fp3eW2MB-32" vertex="1">
          <mxGeometry x="1" y="3" width="24" height="24" as="geometry" />
        </mxCell>
        <mxCell id="FBOawsyxL3B5Fp3eW2MB-34" value="" style="endArrow=none;html=1;rounded=0;curved=1;strokeWidth=1;bendable=0;comic=0;movable=0;cloneable=0;deletable=0;anchorPointDirection=1;fixDash=0;ignoreEdge=0;orthogonalLoop=0;orthogonal=0;arcSize=20;editable=0;" parent="FBOawsyxL3B5Fp3eW2MB-32" edge="1">
          <mxGeometry width="50" height="50" relative="1" as="geometry">
            <mxPoint x="13" y="31" as="sourcePoint" />
            <mxPoint x="13" y="-1" as="targetPoint" />
            <Array as="points">
              <mxPoint x="23" y="31" />
              <mxPoint x="31" y="15" />
              <mxPoint x="23" y="-1" />
            </Array>
          </mxGeometry>
        </mxCell>
        <mxCell id="FBOawsyxL3B5Fp3eW2MB-35" value="" style="endArrow=none;html=1;rounded=0;entryX=0.5;entryY=0;entryDx=0;entryDy=0;movable=0;cloneable=0;deletable=0;" parent="FBOawsyxL3B5Fp3eW2MB-30" target="FBOawsyxL3B5Fp3eW2MB-32" edge="1">
          <mxGeometry width="50" height="50" relative="1" as="geometry">
            <mxPoint x="-24" y="40" as="sourcePoint" />
            <mxPoint x="13" as="targetPoint" />
          </mxGeometry>
        </mxCell>
        <mxCell id="FBOawsyxL3B5Fp3eW2MB-37" value="" style="endArrow=none;html=1;rounded=0;entryX=0;entryY=0.5;entryDx=0;entryDy=0;" parent="1" target="FBOawsyxL3B5Fp3eW2MB-4" edge="1">
          <mxGeometry width="50" height="50" relative="1" as="geometry">
            <mxPoint x="110" y="315" as="sourcePoint" />
            <mxPoint x="440" y="330" as="targetPoint" />
          </mxGeometry>
        </mxCell>
        <mxCell id="FBOawsyxL3B5Fp3eW2MB-38" style="edgeStyle=orthogonalEdgeStyle;rounded=0;orthogonalLoop=1;jettySize=auto;html=1;exitX=0.5;exitY=0;exitDx=0;exitDy=0;entryX=0.375;entryY=1.017;entryDx=0;entryDy=0;entryPerimeter=0;endArrow=none;endFill=0;" parent="1" source="FBOawsyxL3B5Fp3eW2MB-20" target="FBOawsyxL3B5Fp3eW2MB-1" edge="1">
          <mxGeometry relative="1" as="geometry">
            <Array as="points">
              <mxPoint x="360" y="320" />
              <mxPoint x="360" y="320" />
            </Array>
          </mxGeometry>
        </mxCell>
        <mxCell id="FBOawsyxL3B5Fp3eW2MB-39" value="" style="endArrow=none;html=1;rounded=0;exitX=0;exitY=0.5;exitDx=0;exitDy=0;" parent="1" source="FBOawsyxL3B5Fp3eW2MB-5" edge="1">
          <mxGeometry width="50" height="50" relative="1" as="geometry">
            <mxPoint x="390" y="380" as="sourcePoint" />
            <mxPoint x="110" y="385" as="targetPoint" />
          </mxGeometry>
        </mxCell>
        <mxCell id="FBOawsyxL3B5Fp3eW2MB-41" value="Person scheint im Matrikel auf" style="rhombus;whiteSpace=wrap;html=1;" parent="1" vertex="1">
          <mxGeometry x="441" y="325.0000000000001" width="130" height="130" as="geometry" />
        </mxCell>
        <mxCell id="FBOawsyxL3B5Fp3eW2MB-42" value="" style="group;resizable=0;cloneable=1;deletable=1;recursiveResize=0;movable=1;treeMoving=0;editable=1;rotatable=1;locked=0;connectable=1;rotation=-45;" parent="1" vertex="1" connectable="0">
          <mxGeometry x="428" y="118" width="32" height="80" as="geometry" />
        </mxCell>
        <mxCell id="FBOawsyxL3B5Fp3eW2MB-43" value="" style="endArrow=none;html=1;rounded=0;snapToPoint=0;ignoreEdge=0;movable=0;deletable=0;cloneable=0;anchorPointDirection=1;" parent="FBOawsyxL3B5Fp3eW2MB-42" edge="1">
          <mxGeometry width="50" height="50" relative="1" as="geometry">
            <mxPoint x="44" y="68" as="sourcePoint" />
            <mxPoint x="27" y="51" as="targetPoint" />
          </mxGeometry>
        </mxCell>
        <mxCell id="FBOawsyxL3B5Fp3eW2MB-44" value="" style="group;resizable=0;expand=0;deletable=0;editable=1;movable=0;rotatable=0;locked=0;connectable=0;recursiveResize=0;container=0;allowArrows=0;cloneable=0;rotation=-45;" parent="FBOawsyxL3B5Fp3eW2MB-42" vertex="1" connectable="0">
          <mxGeometry x="1" y="26" width="32" height="30" as="geometry" />
        </mxCell>
        <mxCell id="FBOawsyxL3B5Fp3eW2MB-45" value="" style="ellipse;whiteSpace=wrap;html=1;strokeWidth=1;resizable=0;movable=0;connectable=0;allowArrows=0;rotatable=0;cloneable=0;deletable=0;part=0;container=0;rotation=-45;" parent="FBOawsyxL3B5Fp3eW2MB-44" vertex="1">
          <mxGeometry x="2" y="1" width="24" height="24" as="geometry" />
        </mxCell>
        <mxCell id="FBOawsyxL3B5Fp3eW2MB-46" value="" style="endArrow=none;html=1;rounded=0;curved=1;strokeWidth=1;bendable=0;comic=0;movable=0;cloneable=0;deletable=0;anchorPointDirection=1;fixDash=0;ignoreEdge=0;orthogonalLoop=0;orthogonal=0;arcSize=20;editable=0;" parent="FBOawsyxL3B5Fp3eW2MB-44" edge="1">
          <mxGeometry width="50" height="50" relative="1" as="geometry">
            <mxPoint x="3" y="24" as="sourcePoint" />
            <mxPoint x="25" y="2" as="targetPoint" />
            <Array as="points">
              <mxPoint x="10" y="31" />
              <mxPoint x="27" y="26" />
              <mxPoint x="32" y="9" />
            </Array>
          </mxGeometry>
        </mxCell>
        <mxCell id="FBOawsyxL3B5Fp3eW2MB-47" value="" style="endArrow=none;html=1;rounded=0;entryX=0.5;entryY=0;entryDx=0;entryDy=0;movable=0;cloneable=0;deletable=0;" parent="FBOawsyxL3B5Fp3eW2MB-42" target="FBOawsyxL3B5Fp3eW2MB-44" edge="1">
          <mxGeometry width="50" height="50" relative="1" as="geometry">
            <mxPoint x="-12" y="12" as="sourcePoint" />
            <mxPoint x="42" y="10" as="targetPoint" />
          </mxGeometry>
        </mxCell>
        <mxCell id="RRx6BCsMKekqrzaxBxrb-1" value="Dozenten" style="rounded=1;whiteSpace=wrap;html=1;arcSize=40;" parent="1" vertex="1">
          <mxGeometry x="380" y="540.0000000000001" width="120" height="35" as="geometry" />
        </mxCell>
        <mxCell id="RRx6BCsMKekqrzaxBxrb-2" style="rounded=0;orthogonalLoop=1;jettySize=auto;html=1;exitX=0;exitY=0.5;exitDx=0;exitDy=0;entryX=1;entryY=1;entryDx=0;entryDy=0;" parent="1" source="RRx6BCsMKekqrzaxBxrb-1" target="FBOawsyxL3B5Fp3eW2MB-28" edge="1">
          <mxGeometry relative="1" as="geometry" />
        </mxCell>
        <mxCell id="ZnQUYUJRkyerH0akCMQI-8" value="aufrechter Studentenstatus" style="rounded=0;whiteSpace=wrap;html=1;" vertex="1" parent="1">
          <mxGeometry x="450" y="185.0000000000001" width="120" height="60" as="geometry" />
        </mxCell>
        <mxCell id="ZnQUYUJRkyerH0akCMQI-9" value="" style="group;resizable=0;cloneable=1;deletable=1;recursiveResize=0;movable=1;treeMoving=0;editable=1;rotatable=1;locked=0;connectable=1;" vertex="1" connectable="0" parent="1">
          <mxGeometry x="490" y="245" width="32" height="80" as="geometry" />
        </mxCell>
        <mxCell id="ZnQUYUJRkyerH0akCMQI-10" value="" style="endArrow=none;html=1;rounded=0;snapToPoint=0;ignoreEdge=0;movable=0;deletable=0;cloneable=0;anchorPointDirection=1;" edge="1" parent="ZnQUYUJRkyerH0akCMQI-9">
          <mxGeometry width="50" height="50" relative="1" as="geometry">
            <mxPoint x="16" y="80" as="sourcePoint" />
            <mxPoint x="16" y="55" as="targetPoint" />
          </mxGeometry>
        </mxCell>
        <mxCell id="ZnQUYUJRkyerH0akCMQI-11" value="" style="group;resizable=0;expand=0;deletable=0;editable=1;movable=0;rotatable=0;locked=0;connectable=0;recursiveResize=0;container=0;allowArrows=0;cloneable=0;" vertex="1" connectable="0" parent="ZnQUYUJRkyerH0akCMQI-9">
          <mxGeometry y="27" width="32" height="30" as="geometry" />
        </mxCell>
        <mxCell id="ZnQUYUJRkyerH0akCMQI-12" value="" style="ellipse;whiteSpace=wrap;html=1;strokeWidth=1;resizable=0;movable=0;connectable=0;allowArrows=0;rotatable=0;cloneable=0;deletable=0;part=0;container=0;" vertex="1" parent="ZnQUYUJRkyerH0akCMQI-11">
          <mxGeometry x="4" width="24" height="24" as="geometry" />
        </mxCell>
        <mxCell id="ZnQUYUJRkyerH0akCMQI-13" value="" style="endArrow=none;html=1;rounded=0;curved=1;strokeWidth=1;bendable=0;comic=0;movable=0;cloneable=0;deletable=0;anchorPointDirection=1;fixDash=0;ignoreEdge=0;orthogonalLoop=0;orthogonal=0;arcSize=20;editable=0;" edge="1" parent="ZnQUYUJRkyerH0akCMQI-11">
          <mxGeometry width="50" height="50" relative="1" as="geometry">
            <mxPoint y="12" as="sourcePoint" />
            <mxPoint x="32" y="12" as="targetPoint" />
            <Array as="points">
              <mxPoint y="22" />
              <mxPoint x="16" y="30" />
              <mxPoint x="32" y="22" />
            </Array>
          </mxGeometry>
        </mxCell>
        <mxCell id="ZnQUYUJRkyerH0akCMQI-14" value="" style="endArrow=none;html=1;rounded=0;entryX=0.5;entryY=0;entryDx=0;entryDy=0;movable=0;cloneable=0;deletable=0;" edge="1" parent="ZnQUYUJRkyerH0akCMQI-9" target="ZnQUYUJRkyerH0akCMQI-11">
          <mxGeometry width="50" height="50" relative="1" as="geometry">
            <mxPoint x="16" as="sourcePoint" />
            <mxPoint x="56" y="37" as="targetPoint" />
          </mxGeometry>
        </mxCell>
        <mxCell id="ZnQUYUJRkyerH0akCMQI-16" style="rounded=0;orthogonalLoop=1;jettySize=auto;html=1;entryX=1;entryY=0;entryDx=0;entryDy=0;" edge="1" parent="1" source="ZnQUYUJRkyerH0akCMQI-15" target="FBOawsyxL3B5Fp3eW2MB-41">
          <mxGeometry relative="1" as="geometry" />
        </mxCell>
        <mxCell id="ZnQUYUJRkyerH0akCMQI-15" value="Studentenamt" style="rounded=1;whiteSpace=wrap;html=1;arcSize=40;" vertex="1" parent="1">
          <mxGeometry x="571" y="300.0000000000001" width="120" height="35" as="geometry" />
        </mxCell>
        <mxCell id="ZnQUYUJRkyerH0akCMQI-17" value="Person ist tot" style="rhombus;whiteSpace=wrap;html=1;" vertex="1" parent="1">
          <mxGeometry x="84" y="39.000000000000114" width="130" height="130" as="geometry" />
        </mxCell>
        <mxCell id="ZnQUYUJRkyerH0akCMQI-18" value="" style="group;resizable=0;cloneable=1;deletable=1;recursiveResize=0;movable=1;treeMoving=0;editable=1;rotatable=1;locked=0;connectable=1;rotation=90;" vertex="1" connectable="0" parent="1">
          <mxGeometry x="238" y="64" width="32" height="80" as="geometry" />
        </mxCell>
        <mxCell id="ZnQUYUJRkyerH0akCMQI-19" value="" style="endArrow=none;html=1;rounded=0;snapToPoint=0;ignoreEdge=0;movable=0;deletable=0;cloneable=0;anchorPointDirection=1;" edge="1" parent="ZnQUYUJRkyerH0akCMQI-18">
          <mxGeometry width="50" height="50" relative="1" as="geometry">
            <mxPoint x="-24" y="40" as="sourcePoint" />
            <mxPoint x="1" y="40" as="targetPoint" />
          </mxGeometry>
        </mxCell>
        <mxCell id="ZnQUYUJRkyerH0akCMQI-20" value="" style="group;resizable=0;expand=0;deletable=0;editable=1;movable=0;rotatable=0;locked=0;connectable=0;recursiveResize=0;container=0;allowArrows=0;cloneable=0;rotation=90;" vertex="1" connectable="0" parent="ZnQUYUJRkyerH0akCMQI-18">
          <mxGeometry x="-2" y="25" width="32" height="30" as="geometry" />
        </mxCell>
        <mxCell id="ZnQUYUJRkyerH0akCMQI-21" value="" style="ellipse;whiteSpace=wrap;html=1;strokeWidth=1;resizable=0;movable=0;connectable=0;allowArrows=0;rotatable=0;cloneable=0;deletable=0;part=0;container=0;rotation=90;" vertex="1" parent="ZnQUYUJRkyerH0akCMQI-20">
          <mxGeometry x="7" y="3" width="24" height="24" as="geometry" />
        </mxCell>
        <mxCell id="ZnQUYUJRkyerH0akCMQI-22" value="" style="endArrow=none;html=1;rounded=0;curved=1;strokeWidth=1;bendable=0;comic=0;movable=0;cloneable=0;deletable=0;anchorPointDirection=1;fixDash=0;ignoreEdge=0;orthogonalLoop=0;orthogonal=0;arcSize=20;editable=0;" edge="1" parent="ZnQUYUJRkyerH0akCMQI-20">
          <mxGeometry width="50" height="50" relative="1" as="geometry">
            <mxPoint x="19" y="-1" as="sourcePoint" />
            <mxPoint x="19" y="31" as="targetPoint" />
            <Array as="points">
              <mxPoint x="9" y="-1" />
              <mxPoint x="1" y="15" />
              <mxPoint x="9" y="31" />
            </Array>
          </mxGeometry>
        </mxCell>
        <mxCell id="ZnQUYUJRkyerH0akCMQI-23" value="" style="endArrow=none;html=1;rounded=0;exitX=0;exitY=1;exitDx=0;exitDy=0;entryX=1;entryY=0;entryDx=0;entryDy=0;strokeWidth=1;elbow=vertical;bendable=0;movable=0;cloneable=0;deletable=0;editable=0;resizable=1;rotatable=1;locked=0;connectable=1;" edge="1" parent="ZnQUYUJRkyerH0akCMQI-20" source="ZnQUYUJRkyerH0akCMQI-21" target="ZnQUYUJRkyerH0akCMQI-21">
          <mxGeometry width="50" height="50" relative="1" as="geometry">
            <mxPoint x="17" y="14" as="sourcePoint" />
            <mxPoint x="27" y="24" as="targetPoint" />
          </mxGeometry>
        </mxCell>
        <mxCell id="ZnQUYUJRkyerH0akCMQI-24" value="" style="endArrow=none;html=1;rounded=0;exitX=0;exitY=0;exitDx=0;exitDy=0;entryX=1;entryY=1;entryDx=0;entryDy=0;strokeWidth=1;movable=0;cloneable=0;deletable=0;bendable=0;editable=0;resizable=1;rotatable=1;locked=0;connectable=1;" edge="1" parent="ZnQUYUJRkyerH0akCMQI-20" source="ZnQUYUJRkyerH0akCMQI-21" target="ZnQUYUJRkyerH0akCMQI-21">
          <mxGeometry width="50" height="50" relative="1" as="geometry">
            <mxPoint x="9" y="9" as="sourcePoint" />
            <mxPoint x="25" y="25" as="targetPoint" />
          </mxGeometry>
        </mxCell>
        <mxCell id="ZnQUYUJRkyerH0akCMQI-25" value="" style="endArrow=none;html=1;rounded=0;entryX=0.5;entryY=0;entryDx=0;entryDy=0;movable=0;cloneable=0;deletable=0;" edge="1" parent="ZnQUYUJRkyerH0akCMQI-18" target="ZnQUYUJRkyerH0akCMQI-20">
          <mxGeometry width="50" height="50" relative="1" as="geometry">
            <mxPoint x="56" y="40" as="sourcePoint" />
            <mxPoint x="19" y="80" as="targetPoint" />
          </mxGeometry>
        </mxCell>
      </root>
    </mxGraphModel>
  </diagram>
</mxfile>
